# xmcd
#
# Track frame offsets:
#	187
#	21735
#	42170
#	64775
#	84927
#	109457
#	135675
#	152257
#	166567
#	186770
#	204565
#	223687
#
# Disc length: 3229 seconds
#
# Revision: 1
# Processed by: cddbd v1.5.1PL0 Copyright (c) Steve Scherf et al.
# Submitted via: CDex 1.50Beta5
#
DISCID=a00c9b0c
DTITLE=アンルイス - Acrobat
DYEAR=1900
DGENRE=
TTITLE0=ROCKADERIC LOVER
TTITLE1=ああ無情
TTITLE2=MY NAME IS WOMAN
TTITLE3=いらいらさせないで
TTITLE4=KARADA
TTITLE5=復活 REVIVAL
TTITLE6=女はそれを我慢できない
TTITLE7=女・Tonite
TTITLE8=立ちっぱなしのBad Boy
TTITLE9=IN PLEASURE
TTITLE10=ROMANTIC VIOLENCE
TTITLE11=Finish!!
EXTD=
EXTT0=
EXTT1=
EXTT2=
EXTT3=
EXTT4=
EXTT5=
EXTT6=
EXTT7=
EXTT8=
EXTT9=
EXTT10=
EXTT11=
PLAYORDER=
